<mxfile host="app.diagrams.net" modified="2022-04-25T00:39:54.174Z" agent="5.0 (Windows NT 10.0; Win64; x64) AppleWebKit/537.36 (KHTML, like Gecko) Chrome/100.0.4896.127 Safari/537.36" etag="UKZnF1ihaSSeXMGbfN1h" version="17.4.6" type="github">
  <diagram id="O2JxeEc808noTKYNn4qI" name="Page-1">
    <mxGraphModel dx="5526" dy="-2796" grid="1" gridSize="10" guides="1" tooltips="1" connect="1" arrows="1" fold="1" page="1" pageScale="1" pageWidth="850" pageHeight="1100" math="0" shadow="0">
      <root>
        <mxCell id="0" />
        <mxCell id="1" parent="0" />
        <mxCell id="vDZdzagLbiZ6y4tBxTry-1" value="" style="rounded=0;whiteSpace=wrap;html=1;fontSize=18;" vertex="1" parent="1">
          <mxGeometry x="-2040" y="5140" width="1000" height="670" as="geometry" />
        </mxCell>
        <mxCell id="vDZdzagLbiZ6y4tBxTry-2" value="&amp;lt;&amp;lt;external i/p device&amp;gt;&amp;gt;&lt;br&gt;:fire detector" style="rounded=1;whiteSpace=wrap;html=1;fontSize=18;" vertex="1" parent="1">
          <mxGeometry x="-2032" y="5061" width="220" height="50" as="geometry" />
        </mxCell>
        <mxCell id="vDZdzagLbiZ6y4tBxTry-3" value="" style="endArrow=none;dashed=1;html=1;dashPattern=1 3;strokeWidth=2;rounded=0;fontSize=18;entryX=0.5;entryY=1;entryDx=0;entryDy=0;" edge="1" parent="1" target="vDZdzagLbiZ6y4tBxTry-2">
          <mxGeometry width="50" height="50" relative="1" as="geometry">
            <mxPoint x="-1932" y="6050" as="sourcePoint" />
            <mxPoint x="-1372" y="5321" as="targetPoint" />
          </mxGeometry>
        </mxCell>
        <mxCell id="vDZdzagLbiZ6y4tBxTry-4" value="&amp;lt;&amp;lt;interface&amp;gt;&amp;gt;&lt;br&gt;:fire detector interface" style="rounded=1;whiteSpace=wrap;html=1;fontSize=18;" vertex="1" parent="1">
          <mxGeometry x="-1742" y="5061" width="180" height="50" as="geometry" />
        </mxCell>
        <mxCell id="vDZdzagLbiZ6y4tBxTry-5" value="" style="endArrow=none;dashed=1;html=1;dashPattern=1 3;strokeWidth=2;rounded=0;fontSize=18;entryX=0.5;entryY=1;entryDx=0;entryDy=0;" edge="1" parent="1" target="vDZdzagLbiZ6y4tBxTry-4">
          <mxGeometry width="50" height="50" relative="1" as="geometry">
            <mxPoint x="-1652" y="6060" as="sourcePoint" />
            <mxPoint x="-1092" y="5321" as="targetPoint" />
          </mxGeometry>
        </mxCell>
        <mxCell id="vDZdzagLbiZ6y4tBxTry-6" value="&amp;lt;&amp;lt;output device&amp;gt;&amp;gt;&lt;br&gt;:sprinkler" style="rounded=1;whiteSpace=wrap;html=1;fontSize=18;" vertex="1" parent="1">
          <mxGeometry x="-1002" y="5061" width="180" height="50" as="geometry" />
        </mxCell>
        <mxCell id="vDZdzagLbiZ6y4tBxTry-7" value="" style="endArrow=none;dashed=1;html=1;dashPattern=1 3;strokeWidth=2;rounded=0;fontSize=18;entryX=0.5;entryY=1;entryDx=0;entryDy=0;" edge="1" parent="1" target="vDZdzagLbiZ6y4tBxTry-6">
          <mxGeometry width="50" height="50" relative="1" as="geometry">
            <mxPoint x="-912" y="6050" as="sourcePoint" />
            <mxPoint x="-352" y="5321" as="targetPoint" />
          </mxGeometry>
        </mxCell>
        <mxCell id="vDZdzagLbiZ6y4tBxTry-8" value="&amp;lt;&amp;lt;algorithm&amp;gt;&amp;gt;&lt;br&gt;:fireDetect" style="shape=umlLifeline;perimeter=lifelinePerimeter;whiteSpace=wrap;html=1;container=1;collapsible=0;recursiveResize=0;outlineConnect=0;fontSize=18;" vertex="1" parent="1">
          <mxGeometry x="-1242" y="5060" width="140" height="1000" as="geometry" />
        </mxCell>
        <mxCell id="vDZdzagLbiZ6y4tBxTry-9" value="" style="endArrow=classic;html=1;rounded=0;fontSize=18;" edge="1" parent="vDZdzagLbiZ6y4tBxTry-8">
          <mxGeometry width="50" height="50" relative="1" as="geometry">
            <mxPoint x="-138" y="460" as="sourcePoint" />
            <mxPoint x="592" y="460" as="targetPoint" />
          </mxGeometry>
        </mxCell>
        <mxCell id="vDZdzagLbiZ6y4tBxTry-10" value="&amp;lt;&amp;lt;control object&amp;gt;&amp;gt;&lt;br&gt;:smartHomeControl" style="shape=umlLifeline;perimeter=lifelinePerimeter;whiteSpace=wrap;html=1;container=1;collapsible=0;recursiveResize=0;outlineConnect=0;fontSize=18;" vertex="1" parent="1">
          <mxGeometry x="-1470" y="5061" width="175" height="989" as="geometry" />
        </mxCell>
        <mxCell id="vDZdzagLbiZ6y4tBxTry-11" value="&amp;lt;&amp;lt;service&amp;gt;&amp;gt;&lt;br&gt;:fireAlarmService" style="rounded=1;whiteSpace=wrap;html=1;fontSize=18;" vertex="1" parent="1">
          <mxGeometry x="-740" y="5065" width="180" height="50" as="geometry" />
        </mxCell>
        <mxCell id="vDZdzagLbiZ6y4tBxTry-12" value="" style="endArrow=none;dashed=1;html=1;dashPattern=1 3;strokeWidth=2;rounded=0;fontSize=18;entryX=0.5;entryY=1;entryDx=0;entryDy=0;" edge="1" parent="1" target="vDZdzagLbiZ6y4tBxTry-11">
          <mxGeometry width="50" height="50" relative="1" as="geometry">
            <mxPoint x="-650" y="6060" as="sourcePoint" />
            <mxPoint x="-90" y="5325" as="targetPoint" />
          </mxGeometry>
        </mxCell>
        <mxCell id="vDZdzagLbiZ6y4tBxTry-13" value="&amp;lt;&amp;lt;entity&amp;gt;&amp;gt;&lt;br&gt;:fireAlarmData" style="shape=umlLifeline;perimeter=lifelinePerimeter;whiteSpace=wrap;html=1;container=1;collapsible=0;recursiveResize=0;outlineConnect=0;fontSize=18;" vertex="1" parent="1">
          <mxGeometry x="-450" y="5065" width="220" height="995" as="geometry" />
        </mxCell>
        <mxCell id="vDZdzagLbiZ6y4tBxTry-14" value="&amp;lt;&amp;lt;external system&amp;gt;&amp;gt;&lt;br&gt;:policeStation" style="shape=umlLifeline;perimeter=lifelinePerimeter;whiteSpace=wrap;html=1;container=1;collapsible=0;recursiveResize=0;outlineConnect=0;fontSize=18;" vertex="1" parent="1">
          <mxGeometry x="107" y="5062.5" width="190" height="967.5" as="geometry" />
        </mxCell>
        <mxCell id="vDZdzagLbiZ6y4tBxTry-15" value="&amp;lt;&amp;lt;timer&amp;gt;&amp;gt;&lt;br&gt;:timer&amp;nbsp;" style="rounded=0;whiteSpace=wrap;html=1;fontSize=18;" vertex="1" parent="1">
          <mxGeometry x="-192" y="5065" width="190" height="50" as="geometry" />
        </mxCell>
        <mxCell id="vDZdzagLbiZ6y4tBxTry-16" value="" style="endArrow=none;dashed=1;html=1;dashPattern=1 3;strokeWidth=2;rounded=0;fontSize=18;entryX=0.5;entryY=1;entryDx=0;entryDy=0;" edge="1" parent="1" target="vDZdzagLbiZ6y4tBxTry-15">
          <mxGeometry width="50" height="50" relative="1" as="geometry">
            <mxPoint x="-102" y="6060" as="sourcePoint" />
            <mxPoint x="388" y="5552.5" as="targetPoint" />
          </mxGeometry>
        </mxCell>
        <mxCell id="vDZdzagLbiZ6y4tBxTry-17" value="" style="endArrow=classic;html=1;rounded=0;fontSize=18;" edge="1" parent="1">
          <mxGeometry width="50" height="50" relative="1" as="geometry">
            <mxPoint x="-1922" y="5200" as="sourcePoint" />
            <mxPoint x="-1652" y="5200" as="targetPoint" />
          </mxGeometry>
        </mxCell>
        <mxCell id="vDZdzagLbiZ6y4tBxTry-18" value="1: Fire detector detecting smoke" style="text;html=1;strokeColor=none;fillColor=none;align=center;verticalAlign=middle;whiteSpace=wrap;rounded=0;fontSize=18;" vertex="1" parent="1">
          <mxGeometry x="-1902" y="5160" width="210" height="30" as="geometry" />
        </mxCell>
        <mxCell id="vDZdzagLbiZ6y4tBxTry-19" value="" style="endArrow=classic;html=1;rounded=0;fontSize=18;" edge="1" parent="1">
          <mxGeometry width="50" height="50" relative="1" as="geometry">
            <mxPoint x="-1652" y="5240" as="sourcePoint" />
            <mxPoint x="-1382" y="5240" as="targetPoint" />
          </mxGeometry>
        </mxCell>
        <mxCell id="vDZdzagLbiZ6y4tBxTry-20" value="2: sends smoke data to control system" style="text;html=1;strokeColor=none;fillColor=none;align=center;verticalAlign=middle;whiteSpace=wrap;rounded=0;fontSize=18;" vertex="1" parent="1">
          <mxGeometry x="-1632" y="5200" width="210" height="30" as="geometry" />
        </mxCell>
        <mxCell id="vDZdzagLbiZ6y4tBxTry-21" value="" style="endArrow=classic;html=1;rounded=0;fontSize=18;" edge="1" parent="1" source="vDZdzagLbiZ6y4tBxTry-10">
          <mxGeometry width="50" height="50" relative="1" as="geometry">
            <mxPoint x="-1400" y="5360" as="sourcePoint" />
            <mxPoint x="-1173" y="5360" as="targetPoint" />
          </mxGeometry>
        </mxCell>
        <mxCell id="vDZdzagLbiZ6y4tBxTry-22" value="3: run algorithm whether CO level is above mentioned level" style="text;html=1;strokeColor=none;fillColor=none;align=center;verticalAlign=middle;whiteSpace=wrap;rounded=0;fontSize=18;" vertex="1" parent="1">
          <mxGeometry x="-1380" y="5300" width="210" height="30" as="geometry" />
        </mxCell>
        <mxCell id="vDZdzagLbiZ6y4tBxTry-23" value="" style="endArrow=classic;html=1;rounded=0;fontSize=18;" edge="1" parent="1" source="vDZdzagLbiZ6y4tBxTry-10">
          <mxGeometry width="50" height="50" relative="1" as="geometry">
            <mxPoint x="-1610" y="5440" as="sourcePoint" />
            <mxPoint x="-910" y="5440" as="targetPoint" />
          </mxGeometry>
        </mxCell>
        <mxCell id="vDZdzagLbiZ6y4tBxTry-24" value="5.1: fire detected turn on sprinkler" style="text;html=1;strokeColor=none;fillColor=none;align=center;verticalAlign=middle;whiteSpace=wrap;rounded=0;fontSize=18;" vertex="1" parent="1">
          <mxGeometry x="-1170" y="5410" width="210" height="30" as="geometry" />
        </mxCell>
        <mxCell id="vDZdzagLbiZ6y4tBxTry-25" value="5.2: turn on alaram" style="text;html=1;strokeColor=none;fillColor=none;align=center;verticalAlign=middle;whiteSpace=wrap;rounded=0;fontSize=18;" vertex="1" parent="1">
          <mxGeometry x="-900" y="5462.5" width="210" height="30" as="geometry" />
        </mxCell>
        <mxCell id="vDZdzagLbiZ6y4tBxTry-26" value="" style="endArrow=classic;html=1;rounded=0;fontSize=18;" edge="1" parent="1" target="vDZdzagLbiZ6y4tBxTry-13">
          <mxGeometry width="50" height="50" relative="1" as="geometry">
            <mxPoint x="-650" y="5680" as="sourcePoint" />
            <mxPoint x="-650" y="5670" as="targetPoint" />
          </mxGeometry>
        </mxCell>
        <mxCell id="vDZdzagLbiZ6y4tBxTry-27" value="5.3: record the firealarm data" style="text;html=1;strokeColor=none;fillColor=none;align=center;verticalAlign=middle;whiteSpace=wrap;rounded=0;fontSize=18;" vertex="1" parent="1">
          <mxGeometry x="-635" y="5610" width="210" height="30" as="geometry" />
        </mxCell>
        <mxCell id="vDZdzagLbiZ6y4tBxTry-28" value="" style="endArrow=classic;html=1;rounded=0;fontSize=18;" edge="1" parent="1">
          <mxGeometry width="50" height="50" relative="1" as="geometry">
            <mxPoint x="-340" y="5770" as="sourcePoint" />
            <mxPoint x="-100" y="5770" as="targetPoint" />
          </mxGeometry>
        </mxCell>
        <mxCell id="vDZdzagLbiZ6y4tBxTry-29" value="5.4 timer to check if smoke is still detecting or not" style="text;html=1;strokeColor=none;fillColor=none;align=center;verticalAlign=middle;whiteSpace=wrap;rounded=0;fontSize=18;" vertex="1" parent="1">
          <mxGeometry x="-320" y="5720" width="210" height="30" as="geometry" />
        </mxCell>
        <mxCell id="vDZdzagLbiZ6y4tBxTry-30" value="" style="endArrow=classic;html=1;rounded=0;fontSize=18;" edge="1" parent="1">
          <mxGeometry width="50" height="50" relative="1" as="geometry">
            <mxPoint x="-100" y="5890" as="sourcePoint" />
            <mxPoint x="210" y="5890" as="targetPoint" />
          </mxGeometry>
        </mxCell>
        <mxCell id="vDZdzagLbiZ6y4tBxTry-31" value="" style="endArrow=classic;html=1;rounded=0;fontSize=18;" edge="1" parent="1">
          <mxGeometry width="50" height="50" relative="1" as="geometry">
            <mxPoint x="201.5000000000009" y="5966" as="sourcePoint" />
            <mxPoint x="-1930" y="5966" as="targetPoint" />
          </mxGeometry>
        </mxCell>
        <mxCell id="vDZdzagLbiZ6y4tBxTry-32" value="7: keep scanning for smoke" style="text;html=1;strokeColor=none;fillColor=none;align=center;verticalAlign=middle;whiteSpace=wrap;rounded=0;fontSize=18;" vertex="1" parent="1">
          <mxGeometry x="-1890" y="5890" width="210" height="30" as="geometry" />
        </mxCell>
        <mxCell id="vDZdzagLbiZ6y4tBxTry-33" value="Loop" style="text;html=1;strokeColor=none;fillColor=none;align=center;verticalAlign=middle;whiteSpace=wrap;rounded=0;fontSize=18;" vertex="1" parent="1">
          <mxGeometry x="-2032" y="5160" width="60" height="30" as="geometry" />
        </mxCell>
        <mxCell id="vDZdzagLbiZ6y4tBxTry-34" value="" style="endArrow=classic;html=1;rounded=0;fontSize=18;" edge="1" parent="1">
          <mxGeometry width="50" height="50" relative="1" as="geometry">
            <mxPoint x="-1380" y="5423.75" as="sourcePoint" />
            <mxPoint x="-1930" y="5424" as="targetPoint" />
          </mxGeometry>
        </mxCell>
        <mxCell id="vDZdzagLbiZ6y4tBxTry-35" value="4.1 smoke not found&amp;nbsp; keep scanning" style="text;html=1;strokeColor=none;fillColor=none;align=center;verticalAlign=middle;whiteSpace=wrap;rounded=0;fontSize=18;" vertex="1" parent="1">
          <mxGeometry x="-1910" y="5370" width="210" height="30" as="geometry" />
        </mxCell>
        <mxCell id="vDZdzagLbiZ6y4tBxTry-36" value="" style="endArrow=classic;html=1;rounded=0;exitX=0.08;exitY=0.021;exitDx=0;exitDy=0;exitPerimeter=0;" edge="1" parent="1">
          <mxGeometry width="50" height="50" relative="1" as="geometry">
            <mxPoint x="-1173.1999999999998" y="5402.63" as="sourcePoint" />
            <mxPoint x="-1383.4285714285716" y="5402.63" as="targetPoint" />
          </mxGeometry>
        </mxCell>
        <mxCell id="vDZdzagLbiZ6y4tBxTry-37" value="4: send Result" style="text;html=1;strokeColor=none;fillColor=none;align=center;verticalAlign=middle;whiteSpace=wrap;rounded=0;fontSize=18;" vertex="1" parent="1">
          <mxGeometry x="-1410" y="5370" width="210" height="30" as="geometry" />
        </mxCell>
        <mxCell id="vDZdzagLbiZ6y4tBxTry-38" value="6: inform fire station that fire is still on" style="text;html=1;strokeColor=none;fillColor=none;align=center;verticalAlign=middle;whiteSpace=wrap;rounded=0;fontSize=18;" vertex="1" parent="1">
          <mxGeometry x="-110" y="5840" width="210" height="30" as="geometry" />
        </mxCell>
        <mxCell id="vDZdzagLbiZ6y4tBxTry-39" value="Fire Detector&lt;br&gt;" style="text;html=1;strokeColor=none;fillColor=none;align=center;verticalAlign=middle;whiteSpace=wrap;rounded=0;fontSize=28;" vertex="1" parent="1">
          <mxGeometry x="-2092" y="4930" width="280" height="60" as="geometry" />
        </mxCell>
      </root>
    </mxGraphModel>
  </diagram>
</mxfile>
